# xmcd
#
# Track frame offsets: 
#        150
#        17732
#        31529
#        50083
#        64952
#        82842
#        108761
#        126835
#        140013
#        155999
#        171640
#        186258
#
# Disc length: 2698 seconds
#
# Revision: 0
# Processed by: cddbd v1.5.2PL0 Copyright (c) Steve Scherf et al.
# Submitted via: ExactAudioCopy v0.95b4
#
DISCID=a70a880c
DTITLE=Shane Dwight - What You Need
DYEAR=2007
DGENRE=Blues
TTITLE0=What You Need
TTITLE1=Break My Heart Anyway
TTITLE2=Summers Faded
TTITLE3=Have Some Of That
TTITLE4=First Train Runnin'
TTITLE5=Blues Power
TTITLE6=Rockin' Daddy
TTITLE7=Shake Your Money Maker
TTITLE8=Dust My Broom
TTITLE9=Roll Over Beetoven
TTITLE10=Dimples
TTITLE11=Folsom Prison (Live) (Bonus)
EXTD=
EXTT0=
EXTT1=
EXTT2=
EXTT3=
EXTT4=
EXTT5=
EXTT6=
EXTT7=
EXTT8=
EXTT9=
EXTT10=
EXTT11=
PLAYORDER=
